# xmcd CD database file
#
# Track frame offsets:
#	150
#	18320
#	65850
#	87376
#	117301
#	149648
#	159666
#	189621
#	230849
#	245871
#	261443
#	288394
#
# Disc length: 4397 seconds
#
# Revision: 0
# Processed by: cddbd v1.5.2PL0 Copyright (c) Steve Scherf et al.
# Submitted via: CDex 1.51
#
DISCID=c3112b0c
DTITLE=Enrico Rava (Quintet) - The Words and the Days
DYEAR=2007
DGENRE=Jazz
TTITLE0=The Words and the Days
TTITLE1=Secrets
TTITLE2=The Wind
TTITLE3=Echoes of Duke
TTITLE4=Tutù
TTITLE5=Sogni proibiti
TTITLE6=Todamor
TTITLE7=Serpent
TTITLE8=Art Deco
TTITLE9=Traps
TTITLE10=Bob the Cat
TTITLE11=Doctor Ra and Mr. Va
EXTD=YEAR: 2007
EXTT0=
EXTT1=
EXTT2=
EXTT3=
EXTT4=
EXTT5=
EXTT6=
EXTT7=
EXTT8=
EXTT9=
EXTT10=
EXTT11=
PLAYORDER=
